<svg xmlns="http://www.w3.org/2000/svg"
 width="32" height="32" viewBox="0 0 500 500"
 preserveAspectRatio="xMidYMid meet">

<g transform="translate(0.000000,500.000000) scale(0.100000,-0.100000)"
fill="#000000" stroke="none">
<path d="M1292 4083 c-21 -48 -23 -194 -3 -241 14 -32 13 -35 -15 -63 l-30
-30 -44 17 c-95 36 -270 14 -270 -33 0 -36 18 -42 78 -26 59 15 116 13 165 -6
l28 -11 -26 -43 c-36 -63 -68 -191 -60 -247 14 -92 61 -163 116 -175 54 -12
89 5 170 82 44 42 79 74 79 72 0 -2 -9 -28 -20 -57 -26 -69 -27 -162 0 -216
40 -84 185 -199 346 -276 263 -125 411 -136 444 -34 24 72 13 158 -39 306
-112 317 -244 469 -405 468 -34 -1 -79 -7 -101 -15 -21 -8 -41 -13 -42 -11 -2
1 26 28 61 59 137 121 135 226 -6 287 -44 19 -65 22 -133 18 -48 -3 -104 -14
-140 -27 -33 -13 -67 -23 -75 -24 -25 -3 -36 82 -21 169 13 80 10 94 -20 94
-13 0 -26 -12 -37 -37z"/>
<path d="M2200 3405 c0 -3 18 -42 41 -87 96 -192 145 -365 134 -478 l-6 -65
53 -59 c175 -197 445 -356 685 -405 208 -43 561 -50 739 -16 280 53 298 193
53 397 -222 183 -665 382 -1379 617 -279 92 -320 105 -320 96z"/>
<path d="M1580 2812 c0 -22 75 -414 105 -554 155 -708 295 -1090 469 -1276 65
-70 120 -101 175 -102 91 0 172 171 215 455 43 281 40 550 -9 720 -47 169
-187 414 -294 519 -39 38 -42 39 -118 41 -57 2 -103 11 -170 33 -87 30 -248
104 -323 150 -38 24 -50 27 -50 14z"/>
<path d="M2463 2474 c144 -222 209 -410 225 -649 l7 -100 75 -57 c86 -65 251
-154 358 -192 73 -26 228 -56 290 -56 32 0 32 1 32 48 0 82 -20 213 -46 307
-27 96 -113 286 -162 357 -29 42 -31 43 -113 56 -226 35 -461 152 -672 335
l-59 50 65 -99z"/>
</g>
</svg>
