<svg xmlns="http://www.w3.org/2000/svg"
 width="32" height="32" viewBox="0 0 500 500"
 preserveAspectRatio="xMidYMid meet">

<g transform="translate(0.000000,500.000000) scale(0.100000,-0.100000)"
fill="#000000" stroke="none">
<path d="M1751 3637 c-19 -50 -23 -119 -11 -180 7 -34 17 -67 22 -74 7 -8 -7
-29 -45 -67 l-55 -55 -64 21 c-77 24 -209 22 -235 -5 -26 -26 -9 -50 30 -43
88 16 108 17 159 7 30 -7 63 -17 72 -24 15 -11 16 -16 1 -57 -19 -55 -22 -153
-6 -202 15 -45 73 -98 107 -98 36 0 73 22 124 74 50 52 64 58 50 20 -15 -39
-11 -113 9 -171 l17 -52 -26 -28 c-237 -255 -406 -696 -450 -1174 -21 -227 14
-458 80 -532 26 -29 34 -32 87 -32 49 0 65 5 103 31 102 71 198 193 276 350
37 76 45 101 41 131 -38 305 -40 347 -28 498 11 143 19 201 42 325 14 70 58
252 63 257 5 5 56 -19 56 -26 0 -3 -10 -40 -21 -81 -36 -135 -69 -360 -76
-520 -19 -478 133 -898 302 -834 8 4 28 25 44 48 61 88 91 235 91 446 0 260
-55 470 -209 804 -23 49 -41 90 -41 92 0 2 26 -6 58 -17 73 -26 162 -28 197
-5 53 35 70 135 41 244 -7 29 -9 52 -4 52 4 0 59 -25 120 -56 274 -138 439
-196 662 -234 212 -36 436 -22 546 33 50 26 67 57 56 103 -21 84 -227 198
-449 249 -196 45 -512 58 -752 29 -71 -8 -153 -17 -181 -21 -47 -5 -53 -3 -64
17 -6 12 -8 26 -3 30 4 4 76 17 160 29 270 38 621 28 863 -25 49 -10 92 -14
116 -10 51 10 226 102 300 159 115 88 164 156 164 231 0 38 -5 51 -33 79 -123
122 -595 146 -1018 52 -282 -64 -507 -162 -708 -312 -13 -10 -28 -8 -81 13
-64 26 -96 28 -177 8 -25 -6 -22 -1 30 54 54 57 62 76 57 127 -8 81 -177 132
-295 90 -22 -8 -43 -15 -47 -15 -18 0 -30 90 -24 178 5 87 4 92 -15 92 -11 0
-23 -10 -28 -23z"/>
<path d="M2633 2581 c0 -55 -5 -74 -26 -108 -40 -62 -76 -83 -156 -90 -67 -6
-70 -7 -59 -26 6 -11 35 -85 64 -165 58 -155 88 -203 181 -293 169 -164 380
-267 563 -276 84 -4 99 -2 128 17 44 27 62 74 62 157 0 177 -115 424 -274 590
-80 82 -84 85 -226 147 -80 35 -170 75 -201 88 l-56 26 0 -67z"/>
</g>
</svg>
